<svg xmlns="http://www.w3.org/2000/svg" viewBox="0 0 224.25 225"><defs><style>.cls-1{fill:#fff;}.cls-2{fill:#e5e5e5;}.cls-3{fill:#ebebeb;}.cls-4{fill:#ededed;}.cls-5{fill:#43ad45;}.cls-6{fill:#63b55e;}.cls-7{fill:#6ab863;}.cls-8{fill:#53b152;}.cls-9{fill:#59b357;}.cls-10{fill:#49ae4a;}.cls-11{fill:#5eb45a;}.cls-12{fill:#4eaf4e;}.cls-13{fill:#5cb359;}.cls-14{fill:#54b153;}.cls-15{fill:#4aae4b;}.cls-16{fill:#e9e9e9;}.cls-17{fill:#fefefe;}</style></defs><g id="Camada_2" data-name="Camada 2"><g id="Camada_1-2" data-name="Camada 1"><path class="cls-1" d="M0,103.18V0H224.25V101.69a16.53,16.53,0,0,1-1.44-3.27c-.51-2.5-.77-5-1.13-7.56a29.84,29.84,0,0,0-.34,7.79,97.85,97.85,0,0,1-5,45.34c-3.15,8.81-7.68,17.13-11.59,25.67l.05.84c1.07-.92,2.47-1.64,3.16-2.79a103.85,103.85,0,0,0,14.83-45.18c.06-.75.93-1.43,1.42-2.15V225H0v-2.18c1.56.09,3.22.59,4.66.22,15.83-4.07,31.6-8.37,47.43-12.38,2.88-.73,6.52-1.57,8.94-.46,12.27,5.6,24.78,10,38.31,11.27,11.91,1.13,23.75,1.11,35.5-1.41a104,104,0,0,0,35.58-14.46l2.25-1.48h0c.5-.5,1-1,1.52-1.48l6.7-4.5,2.22-1.51c.25-.83.5-1.66.74-2.5l-1-.47-2,2.92a10.72,10.72,0,0,0-2.69,1,109.63,109.63,0,0,1-36.52,18c-14,3.82-28.24,5.25-42.65,3.32a110.67,110.67,0,0,1-37.11-11.45,6.92,6.92,0,0,0-4.52-.55c-11.77,3-23.48,6.17-35.24,9.17C14.76,218,7.37,219.59,0,221.32V119.63a17.07,17.07,0,0,1,1.45,3.18c.62,2.65,1,5.36,1.53,8,1.43,13.09,6.73,24.77,13.65,35.86-1.12-6.18-5.07-11.36-6.84-17.31C8,143.24,6.24,137,4.47,130.85,1.57,117,2.08,103,3.33,89c-.94,3.75-1.32,7.54-1.9,11.29A10.86,10.86,0,0,1,0,103.18Zm197.32,77-1.53,1.49-.7.71-2.25,3v0l-.74.74h0l-6,5.26-1.36,1.65.84,1,3.53-2.62,3-3,2.27-3,.76-1.46,1.52-2.24.7,0,3.78-5.26-1.55,0-.76,1.44-1.5,2.28Zm-176-79.39c-.8,8.12-1,16.22,1,24.23q2.58,9.3,5.18,18.59l5.75,12c1.12,3.4,5.45,6,2.76,10.37-2.71,9.63-5.43,19.26-8.27,29.31,1.39-.26,2.23-.35,3-.56,9.27-2.4,18.56-4.73,27.78-7.3a8.15,8.15,0,0,1,7,.88c21.15,12.39,43.81,16,67.63,10.38a87.09,87.09,0,0,0,50-31.79c.88-1,1.83-2,2.64-3.11a84.78,84.78,0,0,0,13.85-28.43,77.35,77.35,0,0,0,3.51-30.7l-3-17.2q-3.18-9-6.35-18.08C190.14,61,184.28,54,178.21,47.14a12.59,12.59,0,0,0-1.16-1.44c-23.34-22.6-51.11-31.08-82.93-25.12A84.85,84.85,0,0,0,46.34,47.1a79,79,0,0,0-17,24.69A83.78,83.78,0,0,0,21.35,100.79Zm-15.6-21H5.46V81h.29ZM4.24,85.61c-.22.36-.46.59-.42.72s.35.27.54.39Zm.74-3c-.21.36-.46.59-.41.72s.35.27.54.39Z"/><path class="cls-2" d="M0,221.32c7.37-1.73,14.76-3.36,22.09-5.22,11.76-3,23.47-6.21,35.24-9.17a6.92,6.92,0,0,1,4.52.55A110.67,110.67,0,0,0,99,218.93c14.41,1.93,28.62.5,42.65-3.32a109.63,109.63,0,0,0,36.52-18,10.72,10.72,0,0,1,2.69-1l.08.08v1.48l-6.7,4.5c-.51.49-1,1-1.52,1.48h0l-2.25,1.48a104,104,0,0,1-35.58,14.46c-11.75,2.52-23.59,2.54-35.5,1.41-13.53-1.28-26-5.67-38.31-11.27-2.42-1.11-6.06-.27-8.94.46-15.83,4-31.6,8.31-47.43,12.38-1.44.37-3.1-.13-4.66-.22Z"/><path class="cls-3" d="M204.79,169.66c3.91-8.54,8.44-16.86,11.59-25.67a97.85,97.85,0,0,0,5-45.34,29.84,29.84,0,0,1,.34-7.79c.36,2.52.62,5.06,1.13,7.56a16.53,16.53,0,0,0,1.44,3.27v18.69c-.49.72-1.36,1.4-1.42,2.15A103.85,103.85,0,0,1,208,167.71c-.69,1.15-2.09,1.87-3.16,2.79C204.82,170.22,204.81,169.94,204.79,169.66Z"/><path class="cls-4" d="M3,130.85c-.5-2.68-.91-5.39-1.53-8A17.07,17.07,0,0,0,0,119.63V103.18a10.86,10.86,0,0,0,1.43-2.9c.58-3.75,1-7.54,1.9-11.29-1.25,14-1.76,28,1.14,41.86Z"/><path class="cls-1" d="M224.25,114.4v0Z"/><path class="cls-5" d="M183.23,166.92a87.09,87.09,0,0,1-50,31.79c-23.82,5.58-46.48,2-67.63-10.38a8.15,8.15,0,0,0-7-.88c-9.22,2.57-18.51,4.9-27.78,7.3-.81.21-1.65.3-3,.56C30.6,185.26,33.32,175.63,36,166c7.06.24,14.11.69,21.16.7q55.22.12,110.43,0c4.57,0,9.13-.46,13.7-.61C182,166.08,182.59,166.63,183.23,166.92Z"/><path class="cls-6" d="M29.38,71.79a79,79,0,0,1,17-24.69c1.48.5,2.95,1.43,4.44,1.44q62,.12,124,0c1.16,0,2.31-.91,3.47-1.4C184.28,54,190.14,61,193.92,69.4c-2.8.79-5.59,2.28-8.38,2.27-32.54-.06-65.07-.34-97.6-.56a20.55,20.55,0,0,0-1.29-3c-1.7-2.75-2.93-6.28-5.39-7.93-4.26-2.85-12.51-1.06-16,2.93-2.48,2.87-4.32,6.29-6.45,9.46a10.34,10.34,0,0,0-1.85.09C47.72,74.58,38.48,75.63,29.38,71.79Z"/><path class="cls-7" d="M178.21,47.14c-1.16.49-2.31,1.4-3.47,1.4q-62,.1-124,0c-1.49,0-3-.94-4.44-1.44A84.85,84.85,0,0,1,94.12,20.58c31.82-6,59.59,2.52,82.93,25.12A12.59,12.59,0,0,1,178.21,47.14Z"/><path class="cls-8" d="M203.23,104.68a77.35,77.35,0,0,1-3.51,30.7c-1.74.48-3.48,1.34-5.24,1.38-7.45.15-14.9.05-22.35.07-1.35,0-2.7.14-4,.21-.64-.74-1.14-1.77-2-2.16q-11.7-5.72-23.5-11.21c-2.24-1-4-.08-5.44,1.87-2.62,3.46-5.43,6.78-8.16,10.16a4.36,4.36,0,0,1-5.61,1.39c-14.94-6-27-15.48-35.6-29.28,1.74,0,3.49-.13,5.23-.13q48.2,0,96.38,0c4.53,0,9.43,1.27,13.07-2.91C202.61,104.6,203,104.69,203.23,104.68Z"/><path class="cls-9" d="M203.23,104.68c-.25,0-.62-.08-.73,0-3.64,4.18-8.54,2.9-13.07,2.91q-48.18.08-96.38,0c-1.74,0-3.49.08-5.23.13-.13-.25-.27-.49-.41-.74l-.6-.87C84.19,103.39,84.17,101,87,98s4.62-6.53,6.88-9.84c3.7.29,7.4.82,11.1.83q43.72.11,87.44,0c2.62,0,5.24-.93,7.86-1.43Z"/><path class="cls-10" d="M168.08,137c1.35-.07,2.7-.21,4-.21,7.45,0,14.9.08,22.35-.07,1.76,0,3.5-.9,5.24-1.38a84.78,84.78,0,0,1-13.85,28.43c-.81,1.09-1.76,2.08-2.64,3.11-.64-.29-1.28-.84-1.91-.82-4.57.15-9.13.6-13.7.61q-55.21.07-110.43,0c-7,0-14.1-.46-21.16-.7,2.69-4.42-1.64-7-2.76-10.37,1.74,0,3.47-.1,5.21-.1,21.87,0,43.73,0,65.6,0,2.35,0,3.93-.33,3.66-3.13a107.22,107.22,0,0,0,27.72,9.44c6.16,1.3,12.65,1.46,18.31-1.35C163.21,155.82,168.75,148.18,168.08,137Z"/><path class="cls-11" d="M200.27,87.48c-2.62.5-5.24,1.42-7.86,1.43q-43.71.15-87.44,0c-3.7,0-7.4-.54-11.1-.83a30.06,30.06,0,0,0-.94-4.25c-1.59-4.28-3.32-8.51-5-12.75,32.53.22,65.06.5,97.6.56,2.79,0,5.58-1.48,8.38-2.27Q197.09,78.45,200.27,87.48Z"/><path class="cls-12" d="M27.52,143.61q-2.6-9.3-5.18-18.59a15.33,15.33,0,0,1,2.93-.25c1.58.16,3.13.8,4.7.81,13.37.06,26.75.1,40.12-.07,1.33,0,2.65-1.5,4-2.31L92.17,142c-1.45,2-3.4,2.41-5.8,2.37C66.75,144,47.14,143.84,27.52,143.61Z"/><path class="cls-13" d="M29.38,71.79c9.1,3.84,18.34,2.79,27.62.83a10.34,10.34,0,0,1,1.85-.09c-.45,1.41-1,2.81-1.35,4.23-2.59,9.24-.38,17.88,3.27,26.34a56.76,56.76,0,0,1-6.58.79c-8.82.09-17.64-.07-26.45.1-2.88.06-5.22-.21-6.39-3.2A83.78,83.78,0,0,1,29.38,71.79Z"/><path class="cls-14" d="M21.35,100.79c1.17,3,3.51,3.26,6.39,3.2,8.81-.17,17.63,0,26.45-.1a56.76,56.76,0,0,0,6.58-.79L72.5,121.17l.57.67,1,1.36c-1.32.81-2.64,2.29-4,2.31-13.37.17-26.75.13-40.12.07-1.57,0-3.12-.65-4.7-.81a15.33,15.33,0,0,0-2.93.25C20.36,117,20.55,108.91,21.35,100.79Z"/><path class="cls-15" d="M27.52,143.61c19.62.23,39.23.43,58.85.74,2.4,0,4.35-.4,5.8-2.37l8.83,6.44,1.56,1.06a.63.63,0,0,1,.64.3l.7.51,1.51.84.89.56-.09-.07,1.54.83v0c.27,2.8-1.31,3.14-3.66,3.13-21.87-.07-43.73,0-65.6,0-1.74,0-3.47.07-5.21.1Z"/><path class="cls-16" d="M3,130.85H4.47C6.24,137,8,143.24,9.79,149.4c1.77,5.95,5.72,11.13,6.84,17.31C9.71,155.62,4.41,143.94,3,130.85Z"/><path class="cls-2" d="M186.09,191.41l6-5.26,0,2.25-3,3Z"/><path class="cls-3" d="M201.13,176.44l-3.78,5.26,0-1.52h0l1.5-2.28.76-1.44Z"/><path class="cls-3" d="M186.09,191.41h3L185.57,194l-.84-1Z"/><path class="cls-2" d="M180.82,196.58l2-2.92,1,.47c-.24.84-.49,1.67-.74,2.5l-2.21,0Z"/><path class="cls-3" d="M192.1,188.4l0-2.25h0l.74-.74v0l1.53,0Z"/><path class="cls-2" d="M194.37,185.44l-1.53,0,2.25-3c0,.53,0,1.07,0,1.6Z"/><path class="cls-3" d="M195.13,184c0-.53,0-1.07,0-1.6l.7-.71.86.07Z"/><path class="cls-3" d="M180.9,196.66l2.21,0-2.22,1.51C180.9,197.64,180.9,197.15,180.9,196.66Z"/><path class="cls-3" d="M170.42,205.6l2.25-1.48Z"/><path class="cls-2" d="M198.82,177.9l-1.5,2.28Z"/><path class="cls-3" d="M172.67,204.12c.5-.5,1-1,1.52-1.48C173.68,203.13,173.17,203.62,172.67,204.12Z"/><path class="cls-2" d="M196.65,181.74l-.86-.07,1.53-1.49,0,1.52Z"/><path class="cls-4" d="M5.75,79.82V81H5.46V79.81Z"/><path class="cls-4" d="M4.24,85.61l.12,1.11c-.19-.12-.47-.21-.54-.39S4,86,4.24,85.61Z"/><path class="cls-4" d="M5,82.62l.13,1.11c-.19-.12-.48-.22-.54-.39S4.77,83,5,82.62Z"/><path class="cls-2" d="M201.13,176.44l-1.55,0Z"/><path class="cls-2" d="M204.79,169.66c0,.28,0,.56.05.84C204.82,170.22,204.81,169.94,204.79,169.66Z"/><path class="cls-2" d="M192.83,185.42l-.74.74Z"/><path class="cls-17" d="M105.41,151.13l-1.51-.84-.7-.51a.63.63,0,0,0-.64-.3L101,148.42,92.17,142,74.06,123.2l-1-1.36-.57-.67L60.77,103.1C57.12,94.64,54.91,86,57.5,76.76c.4-1.42.9-2.82,1.35-4.23,2.13-3.17,4-6.59,6.45-9.46,3.45-4,11.7-5.78,16-2.93,2.46,1.65,3.69,5.18,5.39,7.93a20.55,20.55,0,0,1,1.29,3c1.67,4.24,3.4,8.47,5,12.75a30.06,30.06,0,0,1,.94,4.25c-2.26,3.31-4.17,7-6.88,9.84s-2.8,5.44-.18,8.25l.6.87c.14.25.28.49.41.74,8.55,13.8,20.66,23.24,35.6,29.28A4.36,4.36,0,0,0,129,135.7c2.73-3.38,5.54-6.7,8.16-10.16,1.47-2,3.2-2.91,5.44-1.87q11.81,5.47,23.5,11.21c.81.39,1.31,1.42,2,2.16.67,11.14-4.87,18.78-14.31,23.48-5.66,2.81-12.15,2.65-18.31,1.35a107.22,107.22,0,0,1-27.72-9.44v0l-1.54-.83.09.07Z"/><path class="cls-8" d="M87.41,107.07l-.6-.87Z"/><path class="cls-12" d="M72.5,121.17l.57.67Z"/><path class="cls-10" d="M101,148.42l1.56,1.06Z"/><path class="cls-10" d="M106.21,151.62l1.54.83Z"/><path class="cls-10" d="M105.41,151.13l.89.56Z"/><path class="cls-10" d="M103.2,149.78l.7.51Z"/></g></g></svg>